<?xml version="1.0" encoding="utf-8"?>
<!-- Generator: Adobe Illustrator 27.0.0, SVG Export Plug-In . SVG Version: 6.00 Build 0)  -->
<svg version="1.1" id="Camada_1" xmlns="http://www.w3.org/2000/svg" xmlns:xlink="http://www.w3.org/1999/xlink" x="0px" y="0px"
	 viewBox="0 0 177.2 104.9" style="enable-background:new 0 0 177.2 104.9;" xml:space="preserve">
<style type="text/css">
	.st0{fill:#E3E7EA;}
	.st1{fill:#C9CFD6;}
	.st2{fill:#FE6B6B;}
	.st3{fill:#ED5253;}
	.st4{fill:#576574;}
	.st5{fill:#222F3E;}
	.st6{fill:#2E86DD;}
	.st7{fill:#549FFE;}
	.st8{fill:#FDC957;}
</style>
<g>
	<path class="st0" d="M108.5,29.9c10.1-0.3,20.1,0.2,30,2.9c5.3,1.4,10.4,3.2,15.1,6.1c0.3,0.5,0.5,1,0.5,1.5
		c0,6.1,0.1,12.2-0.1,18.2c0,0.2-0.1,0.4-0.2,0.6c-0.4,0.7-1.1,1-1.8,1.3c-8.8,4.4-18.2,6.8-28,7.6c-5.4,0.5-10.8,0.5-16.1,0.2
		c-12.5-0.6-24.9-2-37.1-4.8c-0.8-0.2-1.6-0.2-2.2-0.9c-0.3-0.7-0.3-1.5-0.3-2.2c0-7.6,0-15.1,0-22.7c0-0.7,0-1.5,0.3-2.2
		c0.5-0.9,1.4-1,2.2-1.2c6.6-1.6,13.3-2.6,20-3.4c4.3-0.5,8.6-0.8,12.8-1.2C105.3,29.6,106.9,29.5,108.5,29.9z"/>
	<path class="st1" d="M68.9,62.8c3.4,0.7,6.8,1.4,10.2,2c4.6,0.8,9.2,1.4,13.8,1.9c9.1,1.1,18.3,1.6,27.5,1.2
		c9.7-0.4,19.2-2.2,28.2-6.3c1.7-0.8,3.3-1.6,5-2.3c0.9,2.2,0.8,4.5,0.1,6.8c-3.9,2.5-8.2,4.1-12.7,5.4c-6.5,2-13.2,3-20,3.4
		c-4.2,0.2-8.4,0.1-12.6,0.2c-1.7,0.4-3.3,0.2-5,0.1c-8-0.7-16.1-1.4-24-2.9c-2.9-0.5-5.8-1-8.7-1.7c-0.8-0.2-1.6-0.3-2.1-1.1
		c-0.4-1.9-0.2-3.8-0.2-5.7C68.5,63.4,68.6,63,68.9,62.8z"/>
	<path class="st2" d="M108.5,29.9c-2.1,0.6-4.4,0.4-6.5,0.5c-10.3,0.8-20.6,2.1-30.7,4.3c-0.8,0.2-1.7,0.4-2.5,0.7
		c-0.2,0.1-0.3,0.1-0.4,0c-1.3-4.6-2.6-9.2-3.9-13.8c-0.7-2.5-0.1-3.4,2.5-3.3c9.4,0.3,18.8,0.9,27.8,3.8
		C99.9,23.7,104.8,25.8,108.5,29.9z"/>
	<path class="st3" d="M68.9,69.5c3.4,1.2,7,1.6,10.5,2.3c5.3,1,10.7,1.6,16,2.2c3.4,0.4,6.8,0.5,10.3,0.7c0.9,0.1,1.8-0.1,2.7,0.3
		c-2.9,3.4-6.7,5.2-10.8,6.8c-5.5,2.2-11.3,3.2-17.1,3.9c-4.4,0.5-8.8,0.6-13.2,0.8c-3,0.2-3.6-0.7-2.8-3.5
		c1.3-4.5,2.5-9.1,3.8-13.6c0.1-0.1,0.2-0.2,0.3-0.2C68.7,69.4,68.8,69.4,68.9,69.5z"/>
	<path class="st2" d="M8.7,49.2c2.2-2.2,5-3.3,7.8-4.3c9.4-3.2,19.1-5.4,29.1-5.7c5.7-0.2,11,4.4,12.2,10C57.4,52.8,55,55,52.3,57
		c-0.9,0.6-1.9,1.1-2.9,1.4c-0.6,0.2-1.2,0.3-1.7-0.2c0-0.8,0.7-1,1.1-1.5c2-2.1,2.5-4.4,1.4-6.8c-1.1-2.4-3.5-3.6-6.2-3.4
		c-5.1,0.3-10.2,1.1-15.2,2.1c-1.7,0.3-3.4,0.8-4.9,1.6c-2.2,1.2-2.3,2.5-0.4,4.1c0.3,0.3,0.8,0.5,0.7,1c-0.4,0.3-0.8,0.3-1.2,0.2
		c-4.4-1.3-8.8-2.4-12.7-4.9C9.7,50.2,9.1,49.9,8.7,49.2z"/>
	<path class="st3" d="M47.8,58.2c3.4-0.3,5.7-2.3,7.8-4.8c1-1.2,1.6-2.7,2.2-4.2c1.8,6.5-1.8,13.5-8.5,15.8
		c-3.3,1.1-6.6,0.7-9.9,0.3c-7.3-1-14.5-2.5-21.6-4.8c-2.8-0.9-5.5-2-8-3.7c-3.2-2.2-3.7-5.2-1.2-7.6c2.7,1.7,5.5,3.2,8.6,4.2
		c2.3,0.7,4.6,1.5,6.9,2c0.5-0.4,1-0.2,1.5,0c6.2,1.8,12.5,2.4,18.9,3C45.7,58.5,46.8,57.8,47.8,58.2z"/>
	<path class="st4" d="M68.9,69.5c-0.1,0-0.3,0-0.4,0c-0.7-1.5-0.4-3.1-0.3-4.6c0-1.5-0.5-2.3-2-2.6c-1.8-0.4-3.5-1.1-5.2-1.8
		c-0.7-0.3-1.3-0.7-1.4-1.6c0-1.6,0-3.3,0-4.9c0.5-0.5,1.2-0.3,1.8-0.5c0.6-0.2,1.1-0.5,1-1.2c0-0.6-0.5-0.9-1-1
		c-0.6-0.2-1.3,0-1.8-0.5c0-2,0-3.9,0-5.9c0.4-0.4,1-0.3,1.5-0.5c0.7-0.2,1.3-0.6,1.3-1.4c0-0.9-0.7-1.1-1.4-1.2c-0.5,0-1,0-1.3-0.4
		c-0.1-2.9-0.2-3,2.5-4c2.1-0.8,4.2-1.5,6.3-2.2c0.1,0,0.3,0,0.4,0c0,8.5,0,17,0,25.5c0,0.6,0.1,1.3,0.1,1.9
		C68.9,65,68.9,67.3,68.9,69.5z"/>
	<path class="st2" d="M153.6,58.9c0-6.7,0-13.3-0.1-20c5.2,2.7,9.8,6.2,13.9,10.3c-3.6,3.8-7.9,6.9-12.4,9.5
		C154.7,59,154.2,59.3,153.6,58.9z"/>
	<path class="st3" d="M153.6,58.9c3.7-1.6,6.7-4.1,9.8-6.5c1.4-1,2.3-2.7,4-3.3c3.5,3,3.5,3.1,0.2,6.4c-4,4-8.5,7.3-13.4,10.1
		c-0.2,0.1-0.5,0.2-0.7,0.3c0-2.3,0-4.5-0.1-6.8C153.6,59.1,153.6,59,153.6,58.9z"/>
	<path class="st5" d="M59.5,58.9c1.4,1.6,3.4,1.9,5.2,2.5c3.7,1.1,3.8,1.1,3.8,4.9c0,1.1-0.1,2.1-0.1,3.2c-0.1,0-0.1,0-0.2,0.1
		c-2.3-0.8-4.6-1.6-6.9-2.3c-1.4-0.5-2.1-1.3-2-2.8C59.6,62.6,59.5,60.8,59.5,58.9z"/>
	<path class="st5" d="M59.5,41.5c0.3,0,0.6,0,1,0c1.3-0.1,2.4,0.3,2.3,1.7c0,1.4-1.1,1.8-2.3,1.9c-0.3,0-0.6,0-1,0
		C59.5,43.8,59.5,42.6,59.5,41.5z"/>
	<path class="st5" d="M59.5,50.8c0.5,0,1.1,0,1.6,0c1.1,0,1.8,0.7,1.8,1.6s-0.6,1.7-1.8,1.6c-0.5,0-1.1,0-1.6,0
		C59.5,53,59.5,51.9,59.5,50.8z"/>
	<path class="st6" d="M134.5,49.2c1.5,3.5,0.5,7.4-2.5,9.7c-2.9,2.2-7.1,2.2-9.9,0c-3-2.3-3.9-6.2-2.4-9.7c0.8-0.1,1,0.5,1.3,0.9
		c3,4,9.1,3.9,12.1,0C133.4,49.7,133.7,49.1,134.5,49.2z"/>
	<path class="st6" d="M106.6,49.2c1.5,3.6,0.5,7.5-2.5,9.7c-3,2.2-7,2.2-9.9,0c-3-2.3-3.9-6.2-2.4-9.7c0.8-0.1,1,0.5,1.3,0.9
		c3,4,9.1,4,12.1,0C105.6,49.7,105.9,49.1,106.6,49.2z"/>
	<path class="st7" d="M106.6,49.2c-0.5,0.5-0.9,1-1.3,1.6c-3,3.8-9.6,3.9-12.8-0.9c-0.2-0.3-0.4-0.5-0.6-0.7
		c1.4-3.1,3.9-4.8,7.3-4.8C102.7,44.4,105.2,46,106.6,49.2z"/>
	<path class="st7" d="M134.5,49.2c-0.5,0.5-0.9,1-1.3,1.6c-3,3.8-9.6,3.9-12.8-0.9c-0.2-0.3-0.4-0.5-0.6-0.7
		c1.4-3.1,3.9-4.8,7.3-4.8C130.5,44.4,133,46,134.5,49.2z"/>
	<path class="st8" d="M47.8,58.2c-2.3,1.1-4.7,0.5-6.9,0.2c-4.5-0.5-9-1.1-13.4-2.2c-1.1-0.3-2.2-0.6-3.2-1c0,0-0.1-0.1-0.1-0.1
		c-1.2-0.7-2.5-1.3-2.4-2.9c0.1-1.6,1.5-2.2,2.8-2.8c3.1-1.3,6.4-1.8,9.7-2.2c3.3-0.5,6.6-0.9,9.9-1.1c3.2-0.2,5.3,1.3,6.4,3.3
		c1.3,2.3,1,5.1-0.7,7C49.2,57.1,48.5,57.6,47.8,58.2z"/>
</g>
</svg>
